<?xml version="1.0" encoding="UTF-8" standalone="no"?>
<svg
   width="1809.7008"
   height="616.70282"
   xml:space="preserve"
   overflow="hidden"
   version="1.1"
   id="svg357"
   sodipodi:docname="Fig7_Metodologia - copia.svg"
   inkscape:version="1.2.2 (732a01da63, 2022-12-09)"
   xmlns:inkscape="http://www.inkscape.org/namespaces/inkscape"
   xmlns:sodipodi="http://sodipodi.sourceforge.net/DTD/sodipodi-0.dtd"
   xmlns="http://www.w3.org/2000/svg"
   xmlns:svg="http://www.w3.org/2000/svg"><sodipodi:namedview
     id="namedview359"
     pagecolor="#ffffff"
     bordercolor="#000000"
     borderopacity="0.25"
     inkscape:showpageshadow="2"
     inkscape:pageopacity="0.0"
     inkscape:pagecheckerboard="0"
     inkscape:deskcolor="#d1d1d1"
     showgrid="false"
     inkscape:zoom="0.11478599"
     inkscape:cx="984.44068"
     inkscape:cy="313.62712"
     inkscape:window-width="1366"
     inkscape:window-height="697"
     inkscape:window-x="-8"
     inkscape:window-y="-8"
     inkscape:window-maximized="1"
     inkscape:current-layer="svg357" /><defs
     id="defs5"><clipPath
       clipPathUnits="userSpaceOnUse"
       id="clipPath820"><g
         id="g824"><rect
           x="0"
           y="0"
           width="3300"
           height="2056"
           id="rect822" /></g></clipPath><clipPath
       clipPathUnits="userSpaceOnUse"
       id="clipPath826"><g
         id="g830"><rect
           x="0"
           y="0"
           width="3300"
           height="2056"
           id="rect828" /></g></clipPath><clipPath
       clipPathUnits="userSpaceOnUse"
       id="clipPath832"><g
         id="g836"><rect
           x="0"
           y="0"
           width="3300"
           height="2056"
           id="rect834" /></g></clipPath><clipPath
       clipPathUnits="userSpaceOnUse"
       id="clipPath838"><g
         id="g842"><rect
           x="0"
           y="0"
           width="3300"
           height="2056"
           id="rect840" /></g></clipPath><clipPath
       clipPathUnits="userSpaceOnUse"
       id="clipPath844"><g
         id="g848"><rect
           x="0"
           y="0"
           width="3300"
           height="2056"
           id="rect846" /></g></clipPath><clipPath
       clipPathUnits="userSpaceOnUse"
       id="clipPath850"><g
         id="g854"><rect
           x="0"
           y="0"
           width="3300"
           height="2056"
           id="rect852" /></g></clipPath><clipPath
       clipPathUnits="userSpaceOnUse"
       id="clipPath856"><g
         id="g860"><rect
           x="0"
           y="0"
           width="3300"
           height="2056"
           id="rect858" /></g></clipPath><clipPath
       clipPathUnits="userSpaceOnUse"
       id="clipPath862"><g
         id="g866"><rect
           x="0"
           y="0"
           width="3300"
           height="2056"
           id="rect864" /></g></clipPath><clipPath
       clipPathUnits="userSpaceOnUse"
       id="clipPath868"><g
         id="g872"><rect
           x="0"
           y="0"
           width="3300"
           height="2056"
           id="rect870" /></g></clipPath><clipPath
       clipPathUnits="userSpaceOnUse"
       id="clipPath874"><g
         id="g878"><rect
           x="0"
           y="0"
           width="3300"
           height="2056"
           id="rect876" /></g></clipPath><clipPath
       clipPathUnits="userSpaceOnUse"
       id="clipPath880"><g
         id="g884"><rect
           x="0"
           y="0"
           width="3300"
           height="2056"
           id="rect882" /></g></clipPath><clipPath
       clipPathUnits="userSpaceOnUse"
       id="clipPath886"><g
         id="g890"><rect
           x="0"
           y="0"
           width="3300"
           height="2056"
           id="rect888" /></g></clipPath><clipPath
       clipPathUnits="userSpaceOnUse"
       id="clipPath892"><g
         id="g896"><rect
           x="0"
           y="0"
           width="3300"
           height="2056"
           id="rect894" /></g></clipPath><clipPath
       clipPathUnits="userSpaceOnUse"
       id="clipPath898"><g
         id="g902"><rect
           x="0"
           y="0"
           width="3300"
           height="2056"
           id="rect900" /></g></clipPath><clipPath
       clipPathUnits="userSpaceOnUse"
       id="clipPath904"><g
         id="g908"><rect
           x="0"
           y="0"
           width="3300"
           height="2056"
           id="rect906" /></g></clipPath><clipPath
       clipPathUnits="userSpaceOnUse"
       id="clipPath910"><g
         id="g914"><rect
           x="0"
           y="0"
           width="3300"
           height="2056"
           id="rect912" /></g></clipPath><clipPath
       clipPathUnits="userSpaceOnUse"
       id="clipPath916"><g
         id="g920"><rect
           x="0"
           y="0"
           width="3300"
           height="2056"
           id="rect918" /></g></clipPath><clipPath
       clipPathUnits="userSpaceOnUse"
       id="clipPath922"><g
         id="g926"><rect
           x="0"
           y="0"
           width="3300"
           height="2056"
           id="rect924" /></g></clipPath><clipPath
       clipPathUnits="userSpaceOnUse"
       id="clipPath928"><g
         id="g932"><rect
           x="0"
           y="0"
           width="3300"
           height="2056"
           id="rect930" /></g></clipPath><clipPath
       clipPathUnits="userSpaceOnUse"
       id="clipPath934"><g
         id="g938"><rect
           x="0"
           y="0"
           width="3300"
           height="2056"
           id="rect936" /></g></clipPath><clipPath
       clipPathUnits="userSpaceOnUse"
       id="clipPath940"><g
         id="g944"><rect
           x="0"
           y="0"
           width="3300"
           height="2056"
           id="rect942" /></g></clipPath><clipPath
       clipPathUnits="userSpaceOnUse"
       id="clipPath946"><g
         id="g950"><rect
           x="0"
           y="0"
           width="3300"
           height="2056"
           id="rect948" /></g></clipPath><clipPath
       clipPathUnits="userSpaceOnUse"
       id="clipPath952"><g
         id="g956"><rect
           x="0"
           y="0"
           width="3300"
           height="2056"
           id="rect954" /></g></clipPath><clipPath
       clipPathUnits="userSpaceOnUse"
       id="clipPath958"><g
         id="g962"><rect
           x="0"
           y="0"
           width="3300"
           height="2056"
           id="rect960" /></g></clipPath><clipPath
       clipPathUnits="userSpaceOnUse"
       id="clipPath964"><g
         id="g968"><rect
           x="0"
           y="0"
           width="3300"
           height="2056"
           id="rect966" /></g></clipPath><clipPath
       clipPathUnits="userSpaceOnUse"
       id="clipPath970"><g
         id="g974"><rect
           x="0"
           y="0"
           width="3300"
           height="2056"
           id="rect972" /></g></clipPath><clipPath
       clipPathUnits="userSpaceOnUse"
       id="clipPath976"><g
         id="g980"><rect
           x="0"
           y="0"
           width="3300"
           height="2056"
           id="rect978" /></g></clipPath><clipPath
       clipPathUnits="userSpaceOnUse"
       id="clipPath982"><g
         id="g986"><rect
           x="0"
           y="0"
           width="3300"
           height="2056"
           id="rect984" /></g></clipPath><clipPath
       clipPathUnits="userSpaceOnUse"
       id="clipPath988"><g
         id="g992"><rect
           x="0"
           y="0"
           width="3300"
           height="2056"
           id="rect990" /></g></clipPath><clipPath
       clipPathUnits="userSpaceOnUse"
       id="clipPath994"><g
         id="g998"><rect
           x="0"
           y="0"
           width="3300"
           height="2056"
           id="rect996" /></g></clipPath><clipPath
       clipPathUnits="userSpaceOnUse"
       id="clipPath1000"><g
         id="g1004"><rect
           x="0"
           y="0"
           width="3300"
           height="2056"
           id="rect1002" /></g></clipPath><clipPath
       clipPathUnits="userSpaceOnUse"
       id="clipPath1006"><g
         id="g1010"><rect
           x="0"
           y="0"
           width="3300"
           height="2056"
           id="rect1008" /></g></clipPath><clipPath
       clipPathUnits="userSpaceOnUse"
       id="clipPath1012"><g
         id="g1016"><rect
           x="0"
           y="0"
           width="3300"
           height="2056"
           id="rect1014" /></g></clipPath><clipPath
       clipPathUnits="userSpaceOnUse"
       id="clipPath1018"><g
         id="g1022"><rect
           x="0"
           y="0"
           width="3300"
           height="2056"
           id="rect1020" /></g></clipPath><clipPath
       clipPathUnits="userSpaceOnUse"
       id="clipPath1024"><g
         id="g1028"><rect
           x="0"
           y="0"
           width="3300"
           height="2056"
           id="rect1026" /></g></clipPath><clipPath
       clipPathUnits="userSpaceOnUse"
       id="clipPath1030"><g
         id="g1034"><rect
           x="0"
           y="0"
           width="3300"
           height="2056"
           id="rect1032" /></g></clipPath><clipPath
       clipPathUnits="userSpaceOnUse"
       id="clipPath1036"><g
         id="g1040"><rect
           x="0"
           y="0"
           width="3300"
           height="2056"
           id="rect1038" /></g></clipPath><clipPath
       clipPathUnits="userSpaceOnUse"
       id="clipPath1042"><g
         id="g1046"><rect
           x="0"
           y="0"
           width="3300"
           height="2056"
           id="rect1044" /></g></clipPath><clipPath
       clipPathUnits="userSpaceOnUse"
       id="clipPath1048"><g
         id="g1052"><rect
           x="0"
           y="0"
           width="3300"
           height="2056"
           id="rect1050" /></g></clipPath><clipPath
       clipPathUnits="userSpaceOnUse"
       id="clipPath1054"><g
         id="g1058"><rect
           x="0"
           y="0"
           width="3300"
           height="2056"
           id="rect1056" /></g></clipPath><clipPath
       clipPathUnits="userSpaceOnUse"
       id="clipPath1060"><g
         id="g1064"><rect
           x="0"
           y="0"
           width="3300"
           height="2056"
           id="rect1062" /></g></clipPath><clipPath
       clipPathUnits="userSpaceOnUse"
       id="clipPath1066"><g
         id="g1070"><rect
           x="0"
           y="0"
           width="3300"
           height="2056"
           id="rect1068" /></g></clipPath><clipPath
       clipPathUnits="userSpaceOnUse"
       id="clipPath1072"><g
         id="g1076"><rect
           x="0"
           y="0"
           width="3300"
           height="2056"
           id="rect1074" /></g></clipPath><clipPath
       clipPathUnits="userSpaceOnUse"
       id="clipPath1078"><g
         id="g1082"><rect
           x="0"
           y="0"
           width="3300"
           height="2056"
           id="rect1080" /></g></clipPath><clipPath
       clipPathUnits="userSpaceOnUse"
       id="clipPath1084"><g
         id="g1088"><rect
           x="0"
           y="0"
           width="3300"
           height="2056"
           id="rect1086" /></g></clipPath><clipPath
       clipPathUnits="userSpaceOnUse"
       id="clipPath1090"><g
         id="g1094"><rect
           x="0"
           y="0"
           width="3300"
           height="2056"
           id="rect1092" /></g></clipPath><clipPath
       clipPathUnits="userSpaceOnUse"
       id="clipPath1096"><g
         id="g1100"><rect
           x="0"
           y="0"
           width="3300"
           height="2056"
           id="rect1098" /></g></clipPath><clipPath
       clipPathUnits="userSpaceOnUse"
       id="clipPath1102"><g
         id="g1106"><rect
           x="0"
           y="0"
           width="3300"
           height="2056"
           id="rect1104" /></g></clipPath><clipPath
       clipPathUnits="userSpaceOnUse"
       id="clipPath1108"><g
         id="g1112"><rect
           x="0"
           y="0"
           width="3300"
           height="2056"
           id="rect1110" /></g></clipPath><clipPath
       clipPathUnits="userSpaceOnUse"
       id="clipPath1114"><g
         id="g1118"><rect
           x="0"
           y="0"
           width="3300"
           height="2056"
           id="rect1116" /></g></clipPath><clipPath
       clipPathUnits="userSpaceOnUse"
       id="clipPath1120"><g
         id="g1124"><rect
           x="0"
           y="0"
           width="3300"
           height="2056"
           id="rect1122" /></g></clipPath><clipPath
       clipPathUnits="userSpaceOnUse"
       id="clipPath1126"><g
         id="g1130"><rect
           x="0"
           y="0"
           width="3300"
           height="2056"
           id="rect1128" /></g></clipPath><clipPath
       clipPathUnits="userSpaceOnUse"
       id="clipPath1132"><g
         id="g1136"><rect
           x="0"
           y="0"
           width="3300"
           height="2056"
           id="rect1134" /></g></clipPath><clipPath
       clipPathUnits="userSpaceOnUse"
       id="clipPath1138"><g
         id="g1142"><rect
           x="0"
           y="0"
           width="3300"
           height="2056"
           id="rect1140" /></g></clipPath><clipPath
       clipPathUnits="userSpaceOnUse"
       id="clipPath1144"><g
         id="g1148"><rect
           x="0"
           y="0"
           width="3300"
           height="2056"
           id="rect1146" /></g></clipPath><clipPath
       clipPathUnits="userSpaceOnUse"
       id="clipPath1150"><g
         id="g1154"><rect
           x="0"
           y="0"
           width="3300"
           height="2056"
           id="rect1152" /></g></clipPath><clipPath
       clipPathUnits="userSpaceOnUse"
       id="clipPath1156"><g
         id="g1160"><rect
           x="0"
           y="0"
           width="3300"
           height="2056"
           id="rect1158" /></g></clipPath><clipPath
       clipPathUnits="userSpaceOnUse"
       id="clipPath1162"><g
         id="g1166"><rect
           x="0"
           y="0"
           width="3300"
           height="2056"
           id="rect1164" /></g></clipPath><clipPath
       clipPathUnits="userSpaceOnUse"
       id="clipPath1168"><g
         id="g1172"><rect
           x="0"
           y="0"
           width="3300"
           height="2056"
           id="rect1170" /></g></clipPath><clipPath
       clipPathUnits="userSpaceOnUse"
       id="clipPath1174"><g
         id="g1178"><rect
           x="0"
           y="0"
           width="3300"
           height="2056"
           id="rect1176" /></g></clipPath><clipPath
       clipPathUnits="userSpaceOnUse"
       id="clipPath1180"><g
         id="g1184"><rect
           x="0"
           y="0"
           width="3300"
           height="2056"
           id="rect1182" /></g></clipPath><clipPath
       clipPathUnits="userSpaceOnUse"
       id="clipPath1186"><g
         id="g1190"><rect
           x="0"
           y="0"
           width="3300"
           height="2056"
           id="rect1188" /></g></clipPath><clipPath
       clipPathUnits="userSpaceOnUse"
       id="clipPath1192"><g
         id="g1196"><rect
           x="0"
           y="0"
           width="3300"
           height="2056"
           id="rect1194" /></g></clipPath><clipPath
       clipPathUnits="userSpaceOnUse"
       id="clipPath1198"><g
         id="g1202"><rect
           x="0"
           y="0"
           width="3300"
           height="2056"
           id="rect1200" /></g></clipPath><clipPath
       clipPathUnits="userSpaceOnUse"
       id="clipPath1204"><g
         id="g1208"><rect
           x="0"
           y="0"
           width="3300"
           height="2056"
           id="rect1206" /></g></clipPath><clipPath
       clipPathUnits="userSpaceOnUse"
       id="clipPath1210"><g
         id="g1214"><rect
           x="0"
           y="0"
           width="3300"
           height="2056"
           id="rect1212" /></g></clipPath><clipPath
       clipPathUnits="userSpaceOnUse"
       id="clipPath1216"><g
         id="g1220"><rect
           x="0"
           y="0"
           width="3300"
           height="2056"
           id="rect1218" /></g></clipPath><clipPath
       clipPathUnits="userSpaceOnUse"
       id="clipPath1222"><g
         id="g1226"><rect
           x="0"
           y="0"
           width="3300"
           height="2056"
           id="rect1224" /></g></clipPath><clipPath
       clipPathUnits="userSpaceOnUse"
       id="clipPath1228"><g
         id="g1232"><rect
           x="0"
           y="0"
           width="3300"
           height="2056"
           id="rect1230" /></g></clipPath><clipPath
       clipPathUnits="userSpaceOnUse"
       id="clipPath1234"><g
         id="g1238"><rect
           x="0"
           y="0"
           width="3300"
           height="2056"
           id="rect1236" /></g></clipPath><clipPath
       clipPathUnits="userSpaceOnUse"
       id="clipPath1240"><g
         id="g1244"><rect
           x="0"
           y="0"
           width="3300"
           height="2056"
           id="rect1242" /></g></clipPath><clipPath
       clipPathUnits="userSpaceOnUse"
       id="clipPath1246"><g
         id="g1250"><rect
           x="0"
           y="0"
           width="3300"
           height="2056"
           id="rect1248" /></g></clipPath><clipPath
       clipPathUnits="userSpaceOnUse"
       id="clipPath1252"><g
         id="g1256"><rect
           x="0"
           y="0"
           width="3300"
           height="2056"
           id="rect1254" /></g></clipPath><clipPath
       clipPathUnits="userSpaceOnUse"
       id="clipPath1258"><g
         id="g1262"><rect
           x="0"
           y="0"
           width="3300"
           height="2056"
           id="rect1260" /></g></clipPath><clipPath
       clipPathUnits="userSpaceOnUse"
       id="clipPath1264"><g
         id="g1268"><rect
           x="0"
           y="0"
           width="3300"
           height="2056"
           id="rect1266" /></g></clipPath><clipPath
       clipPathUnits="userSpaceOnUse"
       id="clipPath1270"><g
         id="g1274"><rect
           x="0"
           y="0"
           width="3300"
           height="2056"
           id="rect1272" /></g></clipPath><clipPath
       clipPathUnits="userSpaceOnUse"
       id="clipPath1276"><g
         id="g1280"><rect
           x="0"
           y="0"
           width="3300"
           height="2056"
           id="rect1278" /></g></clipPath><clipPath
       clipPathUnits="userSpaceOnUse"
       id="clipPath1282"><g
         id="g1286"><rect
           x="0"
           y="0"
           width="3300"
           height="2056"
           id="rect1284" /></g></clipPath><clipPath
       clipPathUnits="userSpaceOnUse"
       id="clipPath1288"><g
         id="g1292"><rect
           x="0"
           y="0"
           width="3300"
           height="2056"
           id="rect1290" /></g></clipPath><clipPath
       clipPathUnits="userSpaceOnUse"
       id="clipPath1294"><g
         id="g1298"><rect
           x="0"
           y="0"
           width="3300"
           height="2056"
           id="rect1296" /></g></clipPath><clipPath
       clipPathUnits="userSpaceOnUse"
       id="clipPath1300"><g
         id="g1304"><rect
           x="0"
           y="0"
           width="3300"
           height="2056"
           id="rect1302" /></g></clipPath><clipPath
       clipPathUnits="userSpaceOnUse"
       id="clipPath1306"><g
         id="g1310"><rect
           x="0"
           y="0"
           width="3300"
           height="2056"
           id="rect1308" /></g></clipPath><clipPath
       clipPathUnits="userSpaceOnUse"
       id="clipPath1312"><g
         id="g1316"><rect
           x="0"
           y="0"
           width="3300"
           height="2056"
           id="rect1314" /></g></clipPath><clipPath
       clipPathUnits="userSpaceOnUse"
       id="clipPath1318"><g
         id="g1322"><rect
           x="0"
           y="0"
           width="3300"
           height="2056"
           id="rect1320" /></g></clipPath><clipPath
       clipPathUnits="userSpaceOnUse"
       id="clipPath1324"><g
         id="g1328"><rect
           x="0"
           y="0"
           width="3300"
           height="2056"
           id="rect1326" /></g></clipPath><clipPath
       clipPathUnits="userSpaceOnUse"
       id="clipPath1330"><g
         id="g1334"><rect
           x="0"
           y="0"
           width="3300"
           height="2056"
           id="rect1332" /></g></clipPath><clipPath
       clipPathUnits="userSpaceOnUse"
       id="clipPath1336"><g
         id="g1340"><rect
           x="0"
           y="0"
           width="3300"
           height="2056"
           id="rect1338" /></g></clipPath><clipPath
       clipPathUnits="userSpaceOnUse"
       id="clipPath1342"><g
         id="g1346"><rect
           x="0"
           y="0"
           width="3300"
           height="2056"
           id="rect1344" /></g></clipPath><clipPath
       clipPathUnits="userSpaceOnUse"
       id="clipPath1348"><g
         id="g1352"><rect
           x="0"
           y="0"
           width="3300"
           height="2056"
           id="rect1350" /></g></clipPath><clipPath
       clipPathUnits="userSpaceOnUse"
       id="clipPath1354"><g
         id="g1358"><rect
           x="0"
           y="0"
           width="3300"
           height="2056"
           id="rect1356" /></g></clipPath><clipPath
       clipPathUnits="userSpaceOnUse"
       id="clipPath1360"><g
         id="g1364"><rect
           x="0"
           y="0"
           width="3300"
           height="2056"
           id="rect1362" /></g></clipPath><clipPath
       clipPathUnits="userSpaceOnUse"
       id="clipPath1366"><g
         id="g1370"><rect
           x="0"
           y="0"
           width="3300"
           height="2056"
           id="rect1368" /></g></clipPath><clipPath
       clipPathUnits="userSpaceOnUse"
       id="clipPath1372"><g
         id="g1376"><rect
           x="0"
           y="0"
           width="3300"
           height="2056"
           id="rect1374" /></g></clipPath><clipPath
       clipPathUnits="userSpaceOnUse"
       id="clipPath1378"><g
         id="g1382"><rect
           x="0"
           y="0"
           width="3300"
           height="2056"
           id="rect1380" /></g></clipPath><clipPath
       clipPathUnits="userSpaceOnUse"
       id="clipPath1384"><g
         id="g1388"><rect
           x="0"
           y="0"
           width="3300"
           height="2056"
           id="rect1386" /></g></clipPath><clipPath
       clipPathUnits="userSpaceOnUse"
       id="clipPath1390"><g
         id="g1394"><rect
           x="0"
           y="0"
           width="3300"
           height="2056"
           id="rect1392" /></g></clipPath><clipPath
       clipPathUnits="userSpaceOnUse"
       id="clipPath1396"><g
         id="g1400"><rect
           x="0"
           y="0"
           width="3300"
           height="2056"
           id="rect1398" /></g></clipPath><clipPath
       clipPathUnits="userSpaceOnUse"
       id="clipPath1402"><g
         id="g1406"><rect
           x="0"
           y="0"
           width="3300"
           height="2056"
           id="rect1404" /></g></clipPath><clipPath
       clipPathUnits="userSpaceOnUse"
       id="clipPath1408"><g
         id="g1412"><rect
           x="0"
           y="0"
           width="3300"
           height="2056"
           id="rect1410" /></g></clipPath><clipPath
       clipPathUnits="userSpaceOnUse"
       id="clipPath1414"><g
         id="g1418"><rect
           x="0"
           y="0"
           width="3300"
           height="2056"
           id="rect1416" /></g></clipPath><clipPath
       clipPathUnits="userSpaceOnUse"
       id="clipPath1420"><g
         id="g1424"><rect
           x="0"
           y="0"
           width="3300"
           height="2056"
           id="rect1422" /></g></clipPath><clipPath
       clipPathUnits="userSpaceOnUse"
       id="clipPath1426"><g
         id="g1430"><rect
           x="0"
           y="0"
           width="3300"
           height="2056"
           id="rect1428" /></g></clipPath><clipPath
       clipPathUnits="userSpaceOnUse"
       id="clipPath1432"><g
         id="g1436"><rect
           x="0"
           y="0"
           width="3300"
           height="2056"
           id="rect1434" /></g></clipPath><clipPath
       clipPathUnits="userSpaceOnUse"
       id="clipPath1438"><g
         id="g1442"><rect
           x="0"
           y="0"
           width="3300"
           height="2056"
           id="rect1440" /></g></clipPath><clipPath
       clipPathUnits="userSpaceOnUse"
       id="clipPath1444"><g
         id="g1448"><rect
           x="0"
           y="0"
           width="3300"
           height="2056"
           id="rect1446" /></g></clipPath><clipPath
       clipPathUnits="userSpaceOnUse"
       id="clipPath1450"><g
         id="g1454"><rect
           x="0"
           y="0"
           width="3300"
           height="2056"
           id="rect1452" /></g></clipPath><clipPath
       clipPathUnits="userSpaceOnUse"
       id="clipPath1456"><g
         id="g1460"><rect
           x="0"
           y="0"
           width="3300"
           height="2056"
           id="rect1458" /></g></clipPath><clipPath
       clipPathUnits="userSpaceOnUse"
       id="clipPath1462"><g
         id="g1466"><rect
           x="0"
           y="0"
           width="3300"
           height="2056"
           id="rect1464" /></g></clipPath><clipPath
       clipPathUnits="userSpaceOnUse"
       id="clipPath1468"><g
         id="g1472"><rect
           x="0"
           y="0"
           width="3300"
           height="2056"
           id="rect1470" /></g></clipPath><clipPath
       clipPathUnits="userSpaceOnUse"
       id="clipPath1474"><g
         id="g1478"><rect
           x="0"
           y="0"
           width="3300"
           height="2056"
           id="rect1476" /></g></clipPath><clipPath
       clipPathUnits="userSpaceOnUse"
       id="clipPath1480"><g
         id="g1484"><rect
           x="0"
           y="0"
           width="3300"
           height="2056"
           id="rect1482" /></g></clipPath><clipPath
       clipPathUnits="userSpaceOnUse"
       id="clipPath1486"><g
         id="g1490"><rect
           x="0"
           y="0"
           width="3300"
           height="2056"
           id="rect1488" /></g></clipPath><clipPath
       clipPathUnits="userSpaceOnUse"
       id="clipPath1492"><g
         id="g1496"><rect
           x="0"
           y="0"
           width="3300"
           height="2056"
           id="rect1494" /></g></clipPath><clipPath
       clipPathUnits="userSpaceOnUse"
       id="clipPath1498"><g
         id="g1502"><rect
           x="0"
           y="0"
           width="3300"
           height="2056"
           id="rect1500" /></g></clipPath><clipPath
       clipPathUnits="userSpaceOnUse"
       id="clipPath1504"><g
         id="g1508"><rect
           x="0"
           y="0"
           width="3300"
           height="2056"
           id="rect1506" /></g></clipPath><clipPath
       clipPathUnits="userSpaceOnUse"
       id="clipPath1510"><g
         id="g1514"><rect
           x="0"
           y="0"
           width="3300"
           height="2056"
           id="rect1512" /></g></clipPath><clipPath
       clipPathUnits="userSpaceOnUse"
       id="clipPath1516"><g
         id="g1520"><rect
           x="0"
           y="0"
           width="3300"
           height="2056"
           id="rect1518" /></g></clipPath><clipPath
       clipPathUnits="userSpaceOnUse"
       id="clipPath1522"><g
         id="g1526"><rect
           x="0"
           y="0"
           width="3300"
           height="2056"
           id="rect1524" /></g></clipPath><clipPath
       clipPathUnits="userSpaceOnUse"
       id="clipPath1528"><g
         id="g1532"><rect
           x="0"
           y="0"
           width="3300"
           height="2056"
           id="rect1530" /></g></clipPath><clipPath
       clipPathUnits="userSpaceOnUse"
       id="clipPath1534"><g
         id="g1538"><rect
           x="0"
           y="0"
           width="3300"
           height="2056"
           id="rect1536" /></g></clipPath><clipPath
       clipPathUnits="userSpaceOnUse"
       id="clipPath1540"><g
         id="g1544"><rect
           x="0"
           y="0"
           width="3300"
           height="2056"
           id="rect1542" /></g></clipPath><clipPath
       clipPathUnits="userSpaceOnUse"
       id="clipPath1546"><g
         id="g1550"><rect
           x="0"
           y="0"
           width="3300"
           height="2056"
           id="rect1548" /></g></clipPath><clipPath
       clipPathUnits="userSpaceOnUse"
       id="clipPath1552"><g
         id="g1556"><rect
           x="0"
           y="0"
           width="3300"
           height="2056"
           id="rect1554" /></g></clipPath><clipPath
       clipPathUnits="userSpaceOnUse"
       id="clipPath1558"><g
         id="g1562"><rect
           x="0"
           y="0"
           width="3300"
           height="2056"
           id="rect1560" /></g></clipPath><clipPath
       clipPathUnits="userSpaceOnUse"
       id="clipPath1564"><g
         id="g1568"><rect
           x="0"
           y="0"
           width="3300"
           height="2056"
           id="rect1566" /></g></clipPath><clipPath
       clipPathUnits="userSpaceOnUse"
       id="clipPath1570"><g
         id="g1574"><rect
           x="0"
           y="0"
           width="3300"
           height="2056"
           id="rect1572" /></g></clipPath><clipPath
       clipPathUnits="userSpaceOnUse"
       id="clipPath1576"><g
         id="g1580"><rect
           x="0"
           y="0"
           width="3300"
           height="2056"
           id="rect1578" /></g></clipPath><clipPath
       clipPathUnits="userSpaceOnUse"
       id="clipPath1582"><g
         id="g1586"><rect
           x="0"
           y="0"
           width="3300"
           height="2056"
           id="rect1584" /></g></clipPath><clipPath
       clipPathUnits="userSpaceOnUse"
       id="clipPath1588"><g
         id="g1592"><rect
           x="0"
           y="0"
           width="3300"
           height="2056"
           id="rect1590" /></g></clipPath></defs><g
     id="g1657"
     transform="translate(-661.21305,-718.0631)"><path
       d="M 663.493,719.487 H 2469.49 V 809.49 H 663.493 Z"
       stroke="#000000"
       stroke-width="2.8478"
       stroke-miterlimit="8"
       fill="#f5dcf9"
       fill-rule="evenodd"
       id="path125"
       clip-path="url(#clipPath1246)" /><path
       d="m 1850.99,831.99 h 615 v 501 h -615 z"
       stroke="#000e6e"
       stroke-width="3.5519"
       stroke-miterlimit="8"
       fill="#ffffff"
       fill-rule="evenodd"
       id="path141"
       clip-path="url(#clipPath1240)" /><path
       d="m 1256.99,831.99 h 571 v 501 h -571 z"
       stroke="#000e6e"
       stroke-width="3.5519"
       stroke-miterlimit="8"
       fill="#ffffff"
       fill-rule="evenodd"
       id="path143"
       clip-path="url(#clipPath1234)" /><path
       d="m 662.989,831.99 h 571.001 v 501 H 662.989 Z"
       stroke="#000e6e"
       stroke-width="3.5519"
       stroke-miterlimit="8"
       fill="#ffffff"
       fill-rule="evenodd"
       id="path145"
       clip-path="url(#clipPath1228)" /><path
       d="m 708.973,917.99 v 397.76 l 480.997,1.24"
       stroke="#000000"
       stroke-width="5.6956"
       stroke-miterlimit="8"
       fill="none"
       fill-rule="evenodd"
       id="path147"
       clip-path="url(#clipPath1222)" /><path
       d="m 789.973,910.99 240.997,379"
       stroke="#d9d9c8"
       stroke-width="5.6956"
       stroke-miterlimit="8"
       fill="#d9d9c8"
       fill-rule="evenodd"
       id="path149"
       clip-path="url(#clipPath1216)" /><path
       d="m 850.97,885.99 134,402"
       stroke="#d9d9c8"
       stroke-width="5.70463"
       stroke-miterlimit="8"
       stroke-dasharray="4.34829, 1.08707"
       fill="#d9d9c8"
       fill-rule="evenodd"
       id="path151"
       clip-path="url(#clipPath1210)" /><path
       d="m 1075.97,1295.99 -302.997,-365"
       stroke="#d9d9c8"
       stroke-width="5.70463"
       stroke-miterlimit="8"
       stroke-dasharray="4.34829, 1.08707"
       fill="#d9d9c8"
       fill-rule="evenodd"
       id="path153"
       clip-path="url(#clipPath1204)" /><path
       d="m 959.97,971.49 c 0,10.21 -8.5,18.5 -19,18.5 -10.49,0 -19,-8.29 -19,-18.5 0,-10.22 8.51,-18.5 19,-18.5 10.5,0 19,8.28 19,18.5 z"
       stroke="#d9d9d9"
       stroke-width="5.6956"
       stroke-miterlimit="8"
       fill="#ffffff"
       fill-rule="evenodd"
       id="path155"
       clip-path="url(#clipPath1198)" /><path
       d="m 1054.97,1034.98 c 0,10.5 -8.5,19 -19,19 -10.49,0 -19,-8.5 -19,-19 0,-10.49 8.51,-18.99 19,-18.99 10.5,0 19,8.5 19,18.99 z"
       stroke="#d9d9d9"
       stroke-width="5.6956"
       stroke-miterlimit="8"
       fill="#ffffff"
       fill-rule="evenodd"
       id="path157"
       clip-path="url(#clipPath1192)" /><path
       d="m 1127.97,993.49 c 0,10.21 -8.28,18.5 -18.5,18.5 -10.21,0 -18.5,-8.29 -18.5,-18.5 0,-10.22 8.29,-18.5 18.5,-18.5 10.22,0 18.5,8.28 18.5,18.5 z"
       stroke="#d9d9d9"
       stroke-width="5.6956"
       stroke-miterlimit="8"
       fill="#ffffff"
       fill-rule="evenodd"
       id="path159"
       clip-path="url(#clipPath1186)" /><path
       d="m 1094.97,1134.98 c 0,10.5 -8.5,19 -19,19 -10.49,0 -19,-8.5 -19,-19 0,-10.49 8.51,-18.99 19,-18.99 10.5,0 19,8.5 19,18.99 z"
       stroke="#d9d9d9"
       stroke-width="5.6956"
       stroke-miterlimit="8"
       fill="#ffffff"
       fill-rule="evenodd"
       id="path161"
       clip-path="url(#clipPath1180)" /><path
       d="m 1030.97,1182.49 c 0,10.21 -8.28,18.5 -18.5,18.5 -10.21,0 -18.5,-8.29 -18.5,-18.5 0,-10.22 8.29,-18.5 18.5,-18.5 10.22,0 18.5,8.28 18.5,18.5 z"
       stroke="#d9d9d9"
       stroke-width="5.6956"
       stroke-miterlimit="8"
       fill="#ffffff"
       fill-rule="evenodd"
       id="path163"
       clip-path="url(#clipPath1174)" /><path
       d="m 965.97,1075.98 c 0,10.5 -8.28,19 -18.5,19 -10.21,0 -18.5,-8.5 -18.5,-19 0,-10.49 8.29,-19 18.5,-19 10.22,0 18.5,8.51 18.5,19 z"
       stroke="#d9d9d9"
       stroke-width="5.6956"
       stroke-miterlimit="8"
       fill="#ffffff"
       fill-rule="evenodd"
       id="path165"
       clip-path="url(#clipPath1168)" /><path
       d="m 1084.97,1235.98 c 0,10.5 -8.5,19.01 -19,19.01 -10.49,0 -19,-8.51 -19,-19.01 0,-10.49 8.51,-19 19,-19 10.5,0 19,8.51 19,19 z"
       stroke="#d9d9d9"
       stroke-width="5.6956"
       stroke-miterlimit="8"
       fill="#ffffff"
       fill-rule="evenodd"
       id="path167"
       clip-path="url(#clipPath1162)" /><path
       d="m 939.97,1211.98 c 0,10.5 -8.5,19.01 -19,19.01 -10.49,0 -19,-8.51 -19,-19.01 0,-10.49 8.51,-18.99 19,-18.99 10.5,0 19,8.5 19,18.99 z"
       stroke="#d9d9d9"
       stroke-width="5.6956"
       stroke-miterlimit="8"
       fill="#d9d9d9"
       fill-rule="evenodd"
       id="path169"
       clip-path="url(#clipPath1156)" /><path
       d="m 833.97,1183.49 c 0,10.21 -8.5,18.5 -19,18.5 -10.49,0 -19,-8.29 -19,-18.5 0,-10.22 8.51,-18.5 19,-18.5 10.5,0 19,8.28 19,18.5 z"
       stroke="#d9d9d9"
       stroke-width="5.6956"
       stroke-miterlimit="8"
       fill="#d9d9d9"
       fill-rule="evenodd"
       id="path171"
       clip-path="url(#clipPath1150)" /><path
       d="m 795.97,1253.49 c 0,10.21 -8.279,18.5 -18.497,18.5 -10.217,0 -18.5,-8.29 -18.5,-18.5 0,-10.22 8.283,-18.5 18.5,-18.5 10.218,0 18.497,8.28 18.497,18.5 z"
       stroke="#d9d9d9"
       stroke-width="5.6956"
       stroke-miterlimit="8"
       fill="#d9d9d9"
       fill-rule="evenodd"
       id="path173"
       clip-path="url(#clipPath1144)" /><path
       d="m 773.973,1100.98 c 0,10.5 -8.507,19 -19,19 -10.494,0 -19.001,-8.5 -19.001,-19 0,-10.49 8.507,-18.99 19.001,-18.99 10.493,0 19,8.5 19,18.99 z"
       stroke="#d9d9d9"
       stroke-width="5.6956"
       stroke-miterlimit="8"
       fill="#d9d9d9"
       fill-rule="evenodd"
       id="path175"
       clip-path="url(#clipPath1138)" /><path
       d="m 805.97,1023.49 c 0,10.21 -8.28,18.5 -18.497,18.5 -10.217,0 -18.5,-8.29 -18.5,-18.5 0,-10.22 8.283,-18.5 18.5,-18.5 10.217,0 18.497,8.28 18.497,18.5 z"
       stroke="#d9d9d9"
       stroke-width="5.6956"
       stroke-miterlimit="8"
       fill="#d9d9d9"
       fill-rule="evenodd"
       id="path177"
       clip-path="url(#clipPath1132)" /><path
       d="m 1552.99,930.98 -166,71"
       stroke="#000000"
       stroke-width="5.69596"
       stroke-miterlimit="8"
       fill="none"
       fill-rule="evenodd"
       id="path179"
       clip-path="url(#clipPath1126)" /><path
       d="m 1552.99,930.98 146,70"
       stroke="#000000"
       stroke-width="5.69596"
       stroke-miterlimit="8"
       fill="none"
       fill-rule="evenodd"
       id="path181"
       clip-path="url(#clipPath1120)" /><path
       d="m 1698.99,1000.98 86,71.01"
       stroke="#000000"
       stroke-width="5.69596"
       stroke-miterlimit="8"
       fill="none"
       fill-rule="evenodd"
       id="path183"
       clip-path="url(#clipPath1114)" /><path
       d="m 1698.99,1000.98 -72,85.65 50.82,89.86 -29.64,102.49"
       stroke="#000000"
       stroke-width="5.69596"
       stroke-miterlimit="8"
       fill="none"
       fill-rule="evenodd"
       id="path185"
       clip-path="url(#clipPath1108)" /><path
       d="m 1677.99,1175.98 32,114.01"
       stroke="#000000"
       stroke-width="5.69596"
       stroke-miterlimit="8"
       fill="none"
       fill-rule="evenodd"
       id="path187"
       clip-path="url(#clipPath1102)" /><path
       d="m 1626.99,1085.98 -32,100"
       stroke="#000000"
       stroke-width="5.69596"
       stroke-miterlimit="8"
       fill="none"
       fill-rule="evenodd"
       id="path189"
       clip-path="url(#clipPath1096)" /><path
       d="m 1476.99,1087.98 45,95"
       stroke="#000000"
       stroke-width="5.69596"
       stroke-miterlimit="8"
       fill="none"
       fill-rule="evenodd"
       id="path191"
       clip-path="url(#clipPath1090)" /><path
       d="m 1386.99,1001.98 90,86"
       stroke="#000000"
       stroke-width="5.69596"
       stroke-miterlimit="8"
       fill="none"
       fill-rule="evenodd"
       id="path193"
       clip-path="url(#clipPath1084)" /><path
       d="m 1386.99,1001.98 -89,79"
       stroke="#000000"
       stroke-width="5.69596"
       stroke-miterlimit="8"
       fill="none"
       fill-rule="evenodd"
       id="path195"
       clip-path="url(#clipPath1078)" /><path
       d="m 1476.99,1087.98 -47,100.9 37.03,98.11"
       stroke="#000000"
       stroke-width="5.69596"
       stroke-miterlimit="8"
       fill="none"
       fill-rule="evenodd"
       id="path197"
       clip-path="url(#clipPath1072)" /><path
       d="m 1429.99,1188.98 -25,93"
       stroke="#000000"
       stroke-width="5.69596"
       stroke-miterlimit="8"
       fill="none"
       fill-rule="evenodd"
       id="path199"
       clip-path="url(#clipPath1066)" /><path
       d="m 1569.99,925.98 c 0,11.6 -9.62,21 -21.5,21 -11.87,0 -21.5,-9.4 -21.5,-21 0,-11.59 9.63,-21 21.5,-21 11.88,0 21.5,9.41 21.5,21 z"
       fill="#d9c8d9"
       fill-rule="evenodd"
       id="path201"
       clip-path="url(#clipPath1060)" /><path
       d="m 1404.99,1014.98 c 0,11.6 -9.4,21 -21,21 -11.6,0 -21,-9.4 -21,-21 0,-11.59 9.4,-21 21,-21 11.6,0 21,9.41 21,21 z"
       fill="#d9d9c8"
       fill-rule="evenodd"
       id="path203"
       clip-path="url(#clipPath1054)" /><path
       d="m 1318.99,1081.98 c 0,11.6 -9.4,21 -21,21 -11.6,0 -21,-9.4 -21,-21 0,-11.59 9.4,-21 21,-21 11.6,0 21,9.41 21,21 z"
       fill="#d9d9d9"
       fill-rule="evenodd"
       id="path205"
       clip-path="url(#clipPath1048)" /><path
       d="m 1487.99,1084.98 c 0,11.6 -9.4,21 -21,21 -11.6,0 -21,-9.4 -21,-21 0,-11.59 9.4,-21 21,-21 11.6,0 21,9.41 21,21 z"
       fill="#d9d9d9"
       fill-rule="evenodd"
       id="path207"
       clip-path="url(#clipPath1042)" /><path
       d="m 1451.99,1191.98 c 0,11.6 -9.62,21 -21.5,21 -11.87,0 -21.5,-9.4 -21.5,-21 0,-11.59 9.63,-21 21.5,-21 11.88,0 21.5,9.41 21.5,21 z"
       fill="#d9d9d9"
       fill-rule="evenodd"
       id="path209"
       clip-path="url(#clipPath1036)" /><path
       d="m 1536.99,1191.98 c 0,11.6 -9.4,21 -21,21 -11.6,0 -21,-9.4 -21,-21 0,-11.59 9.4,-21 21,-21 11.6,0 21,9.41 21,21 z"
       fill="#d9d9d9"
       fill-rule="evenodd"
       id="path211"
       clip-path="url(#clipPath1030)" /><path
       d="m 1428.99,1284.48 c 0,11.88 -9.4,21.5 -21,21.5 -11.6,0 -21,-9.62 -21,-21.5 0,-11.87 9.4,-21.5 21,-21.5 11.6,0 21,9.63 21,21.5 z"
       fill="#d9d9d9"
       fill-rule="evenodd"
       id="path213"
       clip-path="url(#clipPath1024)" /><path
       d="m 1487.99,1289.99 c 0,11.59 -9.4,21 -21,21 -11.6,0 -21,-9.41 -21,-21 0,-11.6 9.4,-21 21,-21 11.6,0 21,9.4 21,21 z"
       fill="#d9d9d9"
       fill-rule="evenodd"
       id="path215"
       clip-path="url(#clipPath1018)" /><path
       d="m 1646.99,1087.98 c 0,11.6 -9.4,21 -21,21 -11.6,0 -21,-9.4 -21,-21 0,-11.59 9.4,-21 21,-21 11.6,0 21,9.41 21,21 z"
       fill="#d9d9d9"
       fill-rule="evenodd"
       id="path217"
       clip-path="url(#clipPath1012)" /><path
       d="m 1612.99,1185.98 c 0,11.6 -9.4,21 -21,21 -11.6,0 -21,-9.4 -21,-21 0,-11.59 9.4,-21 21,-21 11.6,0 21,9.41 21,21 z"
       fill="#d9d9d9"
       fill-rule="evenodd"
       id="path219"
       clip-path="url(#clipPath1006)" /><path
       d="m 1695.99,1180.98 c 0,11.6 -9.4,21 -21,21 -11.6,0 -21,-9.4 -21,-21 0,-11.59 9.4,-21 21,-21 11.6,0 21,9.41 21,21 z"
       fill="#d9d9d9"
       fill-rule="evenodd"
       id="path221"
       clip-path="url(#clipPath1000)" /><path
       d="m 1671.99,1282.99 c 0,11.59 -9.4,21 -21,21 -11.6,0 -21,-9.41 -21,-21 0,-11.6 9.4,-21 21,-21 11.6,0 21,9.4 21,21 z"
       fill="#d9d9d9"
       fill-rule="evenodd"
       id="path223"
       clip-path="url(#clipPath994)" /><path
       d="m 1729.99,1286.99 c 0,11.59 -9.4,21 -21,21 -11.6,0 -21,-9.41 -21,-21 0,-11.6 9.4,-21 21,-21 11.6,0 21,9.4 21,21 z"
       fill="#d9d9d9"
       fill-rule="evenodd"
       id="path225"
       clip-path="url(#clipPath988)" /><path
       d="m 1720.99,1013.48 c 0,11.88 -9.4,21.5 -21,21.5 -11.6,0 -21,-9.62 -21,-21.5 0,-11.87 9.4,-21.5 21,-21.5 11.6,0 21,9.63 21,21.5 z"
       fill="#d9d9c8"
       fill-rule="evenodd"
       id="path227"
       clip-path="url(#clipPath982)" /><path
       d="m 1803.99,1079.48 c 0,11.88 -9.4,21.5 -21,21.5 -11.6,0 -21,-9.62 -21,-21.5 0,-11.87 9.4,-21.5 21,-21.5 11.6,0 21,9.63 21,21.5 z"
       fill="#d9d9d9"
       fill-rule="evenodd"
       id="path229"
       clip-path="url(#clipPath976)" /><path
       d="m 1983.01,1019.98 127,-53"
       stroke="#000000"
       stroke-width="5.6956"
       stroke-miterlimit="8"
       fill="none"
       fill-rule="evenodd"
       id="path231"
       clip-path="url(#clipPath970)" /><path
       d="m 1978.01,1045.98 150,56"
       stroke="#000000"
       stroke-width="5.6956"
       stroke-miterlimit="8"
       fill="none"
       fill-rule="evenodd"
       id="path233"
       clip-path="url(#clipPath964)" /><path
       d="m 1952.01,1061.98 176,198"
       stroke="#000000"
       stroke-width="5.6956"
       stroke-miterlimit="8"
       fill="none"
       fill-rule="evenodd"
       id="path235"
       clip-path="url(#clipPath958)" /><path
       d="m 1946.01,1193.98 164,-227"
       stroke="#000000"
       stroke-width="5.6956"
       stroke-miterlimit="8"
       fill="none"
       fill-rule="evenodd"
       id="path237"
       clip-path="url(#clipPath952)" /><path
       d="m 2128.01,1101.98 -182,91.55 182,66.45"
       stroke="#000000"
       stroke-width="5.6956"
       stroke-miterlimit="8"
       fill="none"
       fill-rule="evenodd"
       id="path239"
       clip-path="url(#clipPath946)" /><path
       d="m 2179.01,1105.99 167,-2"
       stroke="#000000"
       stroke-width="5.6956"
       stroke-miterlimit="8"
       fill="none"
       fill-rule="evenodd"
       id="path241"
       clip-path="url(#clipPath940)" /><path
       d="m 2196.01,938.98 150,165"
       stroke="#000000"
       stroke-width="5.6956"
       stroke-miterlimit="8"
       fill="none"
       fill-rule="evenodd"
       id="path243"
       clip-path="url(#clipPath934)" /><path
       d="m 2183.01,1262.98 c 5.02,0 163,-159 163,-159"
       stroke="#000000"
       stroke-width="5.6956"
       stroke-miterlimit="8"
       fill="none"
       fill-rule="evenodd"
       id="path245"
       clip-path="url(#clipPath928)" /><path
       d="m 1996.01,1030.98 c 0,29.83 -24.18,54 -54,54 -29.82,0 -54,-24.17 -54,-54 0,-29.82 24.18,-54 54,-54 29.82,0 54,24.18 54,54 z"
       fill="#d9d9d9"
       fill-rule="evenodd"
       id="path247"
       clip-path="url(#clipPath922)" /><path
       d="m 1996.01,1189.98 c 0,29.83 -24.18,54 -54,54 -29.82,0 -54,-24.17 -54,-54 0,-29.82 24.18,-54 54,-54 29.82,0 54,24.18 54,54 z"
       fill="#d9d9d9"
       fill-rule="evenodd"
       id="path249"
       clip-path="url(#clipPath916)" /><path
       d="m 2209.01,950.48 c 0,29.55 -24.18,53.5 -54,53.5 -29.82,0 -54,-23.95 -54,-53.5 0,-29.54 24.18,-53.5 54,-53.5 29.82,0 54,23.96 54,53.5 z"
       fill="#d9c8d9"
       fill-rule="evenodd"
       id="path251"
       clip-path="url(#clipPath910)" /><path
       d="m 2208.01,1108.98 c 0,29.83 -24.18,54 -54,54 -29.82,0 -54,-24.17 -54,-54 0,-29.82 24.18,-54 54,-54 29.82,0 54,24.18 54,54 z"
       fill="#d9c8d9"
       fill-rule="evenodd"
       id="path253"
       clip-path="url(#clipPath904)" /><path
       d="m 2421.01,1110.98 c 0,29.83 -23.95,54 -53.5,54 -29.55,0 -53.5,-24.17 -53.5,-54 0,-29.82 23.95,-54 53.5,-54 29.55,0 53.5,24.18 53.5,54 z"
       fill="#d9d9c8"
       fill-rule="evenodd"
       id="path255"
       clip-path="url(#clipPath898)" /><path
       d="m 2208.01,1261.98 c 0,29.83 -24.18,54 -54,54 -29.82,0 -54,-24.17 -54,-54 0,-29.82 24.18,-54 54,-54 29.82,0 54,24.18 54,54 z"
       fill="#d9c8d9"
       fill-rule="evenodd"
       id="path257"
       clip-path="url(#clipPath892)" /><text
       font-family="Abadi, Abadi_MSFontService, sans-serif"
       font-weight="400"
       font-size="64px"
       id="text259"
       x="892.41998"
       y="779">SVM</text><text
       font-family="Abadi, Abadi_MSFontService, sans-serif"
       font-weight="400"
       font-size="64px"
       id="text311"
       x="1517.4301"
       y="793">RF</text><text
       font-family="Abadi, Abadi_MSFontService, sans-serif"
       font-weight="400"
       font-size="64px"
       id="text313"
       x="2139.27"
       y="786">ANN</text></g></svg>
